%TF.GenerationSoftware,KiCad,Pcbnew,8.0.3*%
%TF.CreationDate,2024-07-24T13:51:14+03:00*%
%TF.ProjectId,TPA-1,5450412d-312e-46b6-9963-61645f706362,rev?*%
%TF.SameCoordinates,Original*%
%TF.FileFunction,Copper,L2,Bot*%
%TF.FilePolarity,Positive*%
%FSLAX46Y46*%
G04 Gerber Fmt 4.6, Leading zero omitted, Abs format (unit mm)*
G04 Created by KiCad (PCBNEW 8.0.3) date 2024-07-24 13:51:14*
%MOMM*%
%LPD*%
G01*
G04 APERTURE LIST*
%ADD10C,0.150000*%
%TA.AperFunction,NonConductor*%
%ADD11C,0.150000*%
%TD*%
%TA.AperFunction,ComponentPad*%
%ADD12R,1.350000X1.350000*%
%TD*%
%TA.AperFunction,ComponentPad*%
%ADD13O,1.350000X1.350000*%
%TD*%
%TA.AperFunction,ComponentPad*%
%ADD14R,1.600000X1.600000*%
%TD*%
%TA.AperFunction,ComponentPad*%
%ADD15C,1.600000*%
%TD*%
%TA.AperFunction,ComponentPad*%
%ADD16O,2.720000X3.240000*%
%TD*%
%TA.AperFunction,ComponentPad*%
%ADD17R,1.800000X1.800000*%
%TD*%
%TA.AperFunction,ComponentPad*%
%ADD18C,1.800000*%
%TD*%
%TA.AperFunction,ComponentPad*%
%ADD19O,1.600000X1.600000*%
%TD*%
%TA.AperFunction,Conductor*%
%ADD20C,0.500000*%
%TD*%
G04 APERTURE END LIST*
D10*
D11*
X65088866Y-115063220D02*
X65088866Y-114301316D01*
X65469819Y-114682268D02*
X64707914Y-114682268D01*
D12*
%TO.P,J3,1,Pin_1*%
%TO.N,GND*%
X126400000Y-123700000D03*
D13*
%TO.P,J3,2,Pin_2*%
%TO.N,Net-(J3-Pin_2)*%
X124400000Y-123700000D03*
%TD*%
D14*
%TO.P,C2,1*%
%TO.N,+9V*%
X80100000Y-110700000D03*
D15*
%TO.P,C2,2*%
%TO.N,GND*%
X80100000Y-112700000D03*
%TD*%
D16*
%TO.P,RV1,*%
%TO.N,*%
X102500000Y-112925000D03*
X112100000Y-112925000D03*
D17*
%TO.P,RV1,1,1*%
%TO.N,Net-(C4-Pad1)*%
X104800000Y-120425000D03*
D18*
%TO.P,RV1,2,2*%
X107300000Y-120425000D03*
%TO.P,RV1,3,3*%
%TO.N,Net-(U1B--)*%
X109800000Y-120425000D03*
%TD*%
D15*
%TO.P,R5,1*%
%TO.N,Net-(U1B--)*%
X98810000Y-123500000D03*
D19*
%TO.P,R5,2*%
%TO.N,+4.5V*%
X91190000Y-123500000D03*
%TD*%
D15*
%TO.P,C4,1*%
%TO.N,Net-(C4-Pad1)*%
X115900000Y-120600000D03*
%TO.P,C4,2*%
%TO.N,Net-(C4-Pad2)*%
X115900000Y-115600000D03*
%TD*%
D12*
%TO.P,J2,1,Pin_1*%
%TO.N,Net-(J2-Pin_1)*%
X84700000Y-110700000D03*
D13*
%TO.P,J2,2,Pin_2*%
%TO.N,GND*%
X84700000Y-112700000D03*
%TD*%
D15*
%TO.P,R4,1*%
%TO.N,Net-(U1A-+)*%
X88100000Y-116190000D03*
D19*
%TO.P,R4,2*%
%TO.N,+4.5V*%
X88100000Y-123810000D03*
%TD*%
D15*
%TO.P,R1,1*%
%TO.N,+9V*%
X69100000Y-107980000D03*
D19*
%TO.P,R1,2*%
%TO.N,+4.5V*%
X69100000Y-115600000D03*
%TD*%
D15*
%TO.P,R2,1*%
%TO.N,+4.5V*%
X69100000Y-117700000D03*
D19*
%TO.P,R2,2*%
%TO.N,GND*%
X69100000Y-125320000D03*
%TD*%
D15*
%TO.P,R3,1*%
%TO.N,+9V*%
X73900000Y-108000000D03*
D19*
%TO.P,R3,2*%
%TO.N,Net-(D1-A)*%
X73900000Y-115620000D03*
%TD*%
D12*
%TO.P,J1,1,Pin_1*%
%TO.N,+9V*%
X66100000Y-115700000D03*
D13*
%TO.P,J1,2,Pin_2*%
%TO.N,GND*%
X66100000Y-117700000D03*
%TD*%
D15*
%TO.P,C3,1*%
%TO.N,Net-(J2-Pin_1)*%
X88100000Y-109000000D03*
%TO.P,C3,2*%
%TO.N,Net-(U1A-+)*%
X88100000Y-114000000D03*
%TD*%
D14*
%TO.P,U1,1*%
%TO.N,Net-(U1A--)*%
X91200000Y-112700000D03*
D19*
%TO.P,U1,2,-*%
X91200000Y-115240000D03*
%TO.P,U1,3,+*%
%TO.N,Net-(U1A-+)*%
X91200000Y-117780000D03*
%TO.P,U1,4,V-*%
%TO.N,GND*%
X91200000Y-120320000D03*
%TO.P,U1,5,+*%
%TO.N,Net-(U1A--)*%
X98820000Y-120320000D03*
%TO.P,U1,6,-*%
%TO.N,Net-(U1B--)*%
X98820000Y-117780000D03*
%TO.P,U1,7*%
%TO.N,Net-(C4-Pad1)*%
X98820000Y-115240000D03*
%TO.P,U1,8,V+*%
%TO.N,+9V*%
X98820000Y-112700000D03*
%TD*%
D17*
%TO.P,D1,1,K*%
%TO.N,GND*%
X73900000Y-122775000D03*
D18*
%TO.P,D1,2,A*%
%TO.N,Net-(D1-A)*%
X73900000Y-120235000D03*
%TD*%
D16*
%TO.P,RV2,*%
%TO.N,*%
X119600000Y-113025000D03*
X129200000Y-113025000D03*
D17*
%TO.P,RV2,1,1*%
%TO.N,Net-(C4-Pad2)*%
X121900000Y-120525000D03*
D18*
%TO.P,RV2,2,2*%
%TO.N,Net-(J3-Pin_2)*%
X124400000Y-120525000D03*
%TO.P,RV2,3,3*%
%TO.N,GND*%
X126900000Y-120525000D03*
%TD*%
D14*
%TO.P,C1,1*%
%TO.N,+4.5V*%
X80000000Y-120500000D03*
D15*
%TO.P,C1,2*%
%TO.N,GND*%
X80000000Y-122500000D03*
%TD*%
D20*
%TO.N,GND*%
X73900000Y-122775000D02*
X69100000Y-122775000D01*
X69100000Y-122775000D02*
X69100000Y-125320000D01*
X125275000Y-124825000D02*
X126400000Y-123700000D01*
X66100000Y-117700000D02*
X66100000Y-119775000D01*
X67500000Y-116300000D02*
X66100000Y-117700000D01*
X95705000Y-124825000D02*
X125275000Y-124825000D01*
X91200000Y-120320000D02*
X95705000Y-124825000D01*
X70100000Y-112700000D02*
X67500000Y-115300000D01*
X90068630Y-120320000D02*
X84700000Y-114951370D01*
X80000000Y-122500000D02*
X74175000Y-122500000D01*
X84700000Y-112700000D02*
X80100000Y-112700000D01*
X74175000Y-122500000D02*
X73900000Y-122775000D01*
X66100000Y-119775000D02*
X69100000Y-122775000D01*
X126400000Y-121025000D02*
X126900000Y-120525000D01*
X91200000Y-120320000D02*
X90068630Y-120320000D01*
X67500000Y-115300000D02*
X67500000Y-116300000D01*
X126400000Y-123700000D02*
X126400000Y-121025000D01*
X80100000Y-112700000D02*
X70100000Y-112700000D01*
X84700000Y-114951370D02*
X84700000Y-112700000D01*
%TO.N,+4.5V*%
X88410000Y-123500000D02*
X88100000Y-123810000D01*
X91190000Y-123500000D02*
X88410000Y-123500000D01*
X69100000Y-115600000D02*
X69100000Y-117700000D01*
X74473884Y-114300000D02*
X80000000Y-119826116D01*
X83310000Y-123810000D02*
X80000000Y-120500000D01*
X80000000Y-119826116D02*
X80000000Y-120500000D01*
X88100000Y-123810000D02*
X83310000Y-123810000D01*
X69100000Y-115600000D02*
X70400000Y-114300000D01*
X70400000Y-114300000D02*
X74473884Y-114300000D01*
%TO.N,+9V*%
X66100000Y-110980000D02*
X69100000Y-107980000D01*
X83050000Y-107750000D02*
X93870000Y-107750000D01*
X66100000Y-115700000D02*
X66100000Y-110980000D01*
X80100000Y-110700000D02*
X76600000Y-110700000D01*
X76600000Y-110700000D02*
X73900000Y-108000000D01*
X73900000Y-108000000D02*
X69120000Y-108000000D01*
X93870000Y-107750000D02*
X98820000Y-112700000D01*
X80100000Y-110700000D02*
X83050000Y-107750000D01*
X69120000Y-108000000D02*
X69100000Y-107980000D01*
%TO.N,Net-(U1A-+)*%
X89690000Y-117780000D02*
X88100000Y-116190000D01*
X91200000Y-117780000D02*
X89690000Y-117780000D01*
X88100000Y-114000000D02*
X88100000Y-116190000D01*
%TO.N,Net-(J2-Pin_1)*%
X86400000Y-109000000D02*
X84700000Y-110700000D01*
X84700000Y-110700000D02*
X85000000Y-110700000D01*
X88100000Y-109000000D02*
X86400000Y-109000000D01*
%TO.N,Net-(C4-Pad1)*%
X114375000Y-119075000D02*
X108650000Y-119075000D01*
X115900000Y-120600000D02*
X114375000Y-119075000D01*
X108650000Y-119075000D02*
X107300000Y-120425000D01*
X104800000Y-120425000D02*
X104005000Y-120425000D01*
X107300000Y-120425000D02*
X104800000Y-120425000D01*
X104005000Y-120425000D02*
X98820000Y-115240000D01*
%TO.N,Net-(C4-Pad2)*%
X115900000Y-115600000D02*
X120825000Y-120525000D01*
X120825000Y-120525000D02*
X121900000Y-120525000D01*
%TO.N,Net-(D1-A)*%
X73900000Y-115620000D02*
X73900000Y-120235000D01*
%TO.N,Net-(J3-Pin_2)*%
X124400000Y-123700000D02*
X124400000Y-120525000D01*
%TO.N,Net-(U1B--)*%
X109800000Y-120425000D02*
X106725000Y-123500000D01*
X100070000Y-123500000D02*
X100070000Y-119030000D01*
X106725000Y-123500000D02*
X98810000Y-123500000D01*
X98810000Y-123500000D02*
X100070000Y-123500000D01*
X100070000Y-119030000D02*
X98820000Y-117780000D01*
%TO.N,Net-(U1A--)*%
X98820000Y-120320000D02*
X96280000Y-120320000D01*
X96280000Y-120320000D02*
X91200000Y-115240000D01*
X91200000Y-112700000D02*
X91200000Y-115240000D01*
%TD*%
M02*
