M48
; DRILL file {KiCad 8.0.3} date 2024-07-24T13:51:16+0300
; FORMAT={-:-/ absolute / inch / decimal}
; #@! TF.CreationDate,2024-07-24T13:51:16+03:00
; #@! TF.GenerationSoftware,Kicad,Pcbnew,8.0.3
; #@! TF.FileFunction,Plated,1,2,PTH
FMAT,2
INCH
; #@! TA.AperFunction,Plated,PTH,ComponentDrill
T1C0.0315
; #@! TA.AperFunction,Plated,PTH,ComponentDrill
T2C0.0354
; #@! TA.AperFunction,Plated,PTH,ComponentDrill
T3C0.0394
; #@! TA.AperFunction,Plated,PTH,ComponentDrill
T4C0.0433
%
G90
G05
T1
X2.6024Y-4.5551
X2.6024Y-4.6339
X2.7205Y-4.2512
X2.7205Y-4.5512
X2.7205Y-4.6339
X2.7205Y-4.9339
X2.9094Y-4.252
X2.9094Y-4.552
X3.1496Y-4.7441
X3.1496Y-4.8228
X3.1535Y-4.3583
X3.1535Y-4.437
X3.3346Y-4.3583
X3.3346Y-4.437
X3.4685Y-4.2913
X3.4685Y-4.4882
X3.4685Y-4.5744
X3.4685Y-4.8744
X3.5902Y-4.8622
X3.5906Y-4.437
X3.5906Y-4.537
X3.5906Y-4.637
X3.5906Y-4.737
X3.8902Y-4.8622
X3.8906Y-4.437
X3.8906Y-4.537
X3.8906Y-4.637
X3.8906Y-4.737
X4.563Y-4.5512
X4.563Y-4.748
X4.8976Y-4.8701
X4.9764Y-4.8701
T2
X2.9094Y-4.7337
X2.9094Y-4.8337
T3
X4.126Y-4.7411
X4.2244Y-4.7411
X4.3228Y-4.7411
X4.7992Y-4.7451
X4.8976Y-4.7451
X4.9961Y-4.7451
T4
G00X4.0354Y-4.4596
M15
G01X4.0354Y-4.4321
M16
G05
G00X4.4134Y-4.4596
M15
G01X4.4134Y-4.4321
M16
G05
G00X4.7087Y-4.4636
M15
G01X4.7087Y-4.436
M16
G05
G00X5.0866Y-4.4636
M15
G01X5.0866Y-4.436
M16
G05
M30
