%TF.GenerationSoftware,KiCad,Pcbnew,8.0.3*%
%TF.CreationDate,2024-07-24T13:51:14+03:00*%
%TF.ProjectId,TPA-1,5450412d-312e-46b6-9963-61645f706362,rev?*%
%TF.SameCoordinates,Original*%
%TF.FileFunction,Copper,L1,Top*%
%TF.FilePolarity,Positive*%
%FSLAX46Y46*%
G04 Gerber Fmt 4.6, Leading zero omitted, Abs format (unit mm)*
G04 Created by KiCad (PCBNEW 8.0.3) date 2024-07-24 13:51:14*
%MOMM*%
%LPD*%
G01*
G04 APERTURE LIST*
%TA.AperFunction,ComponentPad*%
%ADD10R,1.350000X1.350000*%
%TD*%
%TA.AperFunction,ComponentPad*%
%ADD11O,1.350000X1.350000*%
%TD*%
%TA.AperFunction,ComponentPad*%
%ADD12R,1.600000X1.600000*%
%TD*%
%TA.AperFunction,ComponentPad*%
%ADD13C,1.600000*%
%TD*%
%TA.AperFunction,ComponentPad*%
%ADD14O,2.720000X3.240000*%
%TD*%
%TA.AperFunction,ComponentPad*%
%ADD15R,1.800000X1.800000*%
%TD*%
%TA.AperFunction,ComponentPad*%
%ADD16C,1.800000*%
%TD*%
%TA.AperFunction,ComponentPad*%
%ADD17O,1.600000X1.600000*%
%TD*%
G04 APERTURE END LIST*
D10*
%TO.P,J3,1,Pin_1*%
%TO.N,GND*%
X126400000Y-123700000D03*
D11*
%TO.P,J3,2,Pin_2*%
%TO.N,Net-(J3-Pin_2)*%
X124400000Y-123700000D03*
%TD*%
D12*
%TO.P,C2,1*%
%TO.N,+9V*%
X80100000Y-110700000D03*
D13*
%TO.P,C2,2*%
%TO.N,GND*%
X80100000Y-112700000D03*
%TD*%
D14*
%TO.P,RV1,*%
%TO.N,*%
X102500000Y-112925000D03*
X112100000Y-112925000D03*
D15*
%TO.P,RV1,1,1*%
%TO.N,Net-(C4-Pad1)*%
X104800000Y-120425000D03*
D16*
%TO.P,RV1,2,2*%
X107300000Y-120425000D03*
%TO.P,RV1,3,3*%
%TO.N,Net-(U1B--)*%
X109800000Y-120425000D03*
%TD*%
D13*
%TO.P,R5,1*%
%TO.N,Net-(U1B--)*%
X98810000Y-123500000D03*
D17*
%TO.P,R5,2*%
%TO.N,+4.5V*%
X91190000Y-123500000D03*
%TD*%
D13*
%TO.P,C4,1*%
%TO.N,Net-(C4-Pad1)*%
X115900000Y-120600000D03*
%TO.P,C4,2*%
%TO.N,Net-(C4-Pad2)*%
X115900000Y-115600000D03*
%TD*%
D10*
%TO.P,J2,1,Pin_1*%
%TO.N,Net-(J2-Pin_1)*%
X84700000Y-110700000D03*
D11*
%TO.P,J2,2,Pin_2*%
%TO.N,GND*%
X84700000Y-112700000D03*
%TD*%
D13*
%TO.P,R4,1*%
%TO.N,Net-(U1A-+)*%
X88100000Y-116190000D03*
D17*
%TO.P,R4,2*%
%TO.N,+4.5V*%
X88100000Y-123810000D03*
%TD*%
D13*
%TO.P,R1,1*%
%TO.N,+9V*%
X69100000Y-107980000D03*
D17*
%TO.P,R1,2*%
%TO.N,+4.5V*%
X69100000Y-115600000D03*
%TD*%
D13*
%TO.P,R2,1*%
%TO.N,+4.5V*%
X69100000Y-117700000D03*
D17*
%TO.P,R2,2*%
%TO.N,GND*%
X69100000Y-125320000D03*
%TD*%
D13*
%TO.P,R3,1*%
%TO.N,+9V*%
X73900000Y-108000000D03*
D17*
%TO.P,R3,2*%
%TO.N,Net-(D1-A)*%
X73900000Y-115620000D03*
%TD*%
D10*
%TO.P,J1,1,Pin_1*%
%TO.N,+9V*%
X66100000Y-115700000D03*
D11*
%TO.P,J1,2,Pin_2*%
%TO.N,GND*%
X66100000Y-117700000D03*
%TD*%
D13*
%TO.P,C3,1*%
%TO.N,Net-(J2-Pin_1)*%
X88100000Y-109000000D03*
%TO.P,C3,2*%
%TO.N,Net-(U1A-+)*%
X88100000Y-114000000D03*
%TD*%
D12*
%TO.P,U1,1*%
%TO.N,Net-(U1A--)*%
X91200000Y-112700000D03*
D17*
%TO.P,U1,2,-*%
X91200000Y-115240000D03*
%TO.P,U1,3,+*%
%TO.N,Net-(U1A-+)*%
X91200000Y-117780000D03*
%TO.P,U1,4,V-*%
%TO.N,GND*%
X91200000Y-120320000D03*
%TO.P,U1,5,+*%
%TO.N,Net-(U1A--)*%
X98820000Y-120320000D03*
%TO.P,U1,6,-*%
%TO.N,Net-(U1B--)*%
X98820000Y-117780000D03*
%TO.P,U1,7*%
%TO.N,Net-(C4-Pad1)*%
X98820000Y-115240000D03*
%TO.P,U1,8,V+*%
%TO.N,+9V*%
X98820000Y-112700000D03*
%TD*%
D15*
%TO.P,D1,1,K*%
%TO.N,GND*%
X73900000Y-122775000D03*
D16*
%TO.P,D1,2,A*%
%TO.N,Net-(D1-A)*%
X73900000Y-120235000D03*
%TD*%
D14*
%TO.P,RV2,*%
%TO.N,*%
X119600000Y-113025000D03*
X129200000Y-113025000D03*
D15*
%TO.P,RV2,1,1*%
%TO.N,Net-(C4-Pad2)*%
X121900000Y-120525000D03*
D16*
%TO.P,RV2,2,2*%
%TO.N,Net-(J3-Pin_2)*%
X124400000Y-120525000D03*
%TO.P,RV2,3,3*%
%TO.N,GND*%
X126900000Y-120525000D03*
%TD*%
D12*
%TO.P,C1,1*%
%TO.N,+4.5V*%
X80000000Y-120500000D03*
D13*
%TO.P,C1,2*%
%TO.N,GND*%
X80000000Y-122500000D03*
%TD*%
M02*
